HIERARCHY
ROOT Hips
{
	OFFSET -3.958830 18.904000 13.208200
	CHANNELS 6 Xposition Yposition Zposition Zrotation Yrotation Xrotation 
	JOINT LHipJoint
	{
		OFFSET 0.000000 0.000000 0.000000
		CHANNELS 3 Zrotation Yrotation Xrotation
		JOINT LeftUpLeg
		{
			OFFSET 1.800000 -1.400000 0.085000
			CHANNELS 3 Zrotation Yrotation Xrotation
			JOINT LeftLeg
			{
				OFFSET 2.215000 -6.000000 0.000000
				CHANNELS 3 Zrotation Yrotation Xrotation
				JOINT LeftFoot
				{
					OFFSET 2.500000 -6.900000 0.000000
					CHANNELS 3 Zrotation Yrotation Xrotation
					JOINT LeftToeBase
					{
						OFFSET 0.200000 -0.500000 1.950000
						CHANNELS 3 Zrotation Yrotation Xrotation
						End Site
						{
							OFFSET 0.000000 0.000000 0.000000
						}
					}
				}
			}
		}
	}
	JOINT RHipJoint
	{
		OFFSET 0.000000 0.000000 0.000000
		CHANNELS 3 Zrotation Yrotation Xrotation
		JOINT RightUpLeg
		{
			OFFSET -1.800000 -1.400000 0.085000
			CHANNELS 3 Zrotation Yrotation Xrotation
			JOINT RightLeg
			{
				OFFSET -2.215000 -6.000000 0.000000
				CHANNELS 3 Zrotation Yrotation Xrotation
				JOINT RightFoot
				{
					OFFSET -2.500000 -6.900000 0.000000
					CHANNELS 3 Zrotation Yrotation Xrotation
					JOINT RightToeBase
					{
						OFFSET -0.200000 -0.500000 1.950000
						CHANNELS 3 Zrotation Yrotation Xrotation
						End Site
						{
							OFFSET 0.000000 0.000000 0.000000
						}
					}
				}
			}
		}
	}
	JOINT LowerBack
	{
		OFFSET 0.000000 0.000000 0.000000
		CHANNELS 3 Zrotation Yrotation Xrotation
		JOINT Spine
		{
			OFFSET -0.087000 1.940000 -0.288900
			CHANNELS 3 Zrotation Yrotation Xrotation
			JOINT Spine1
			{
				OFFSET 0.000000 1.950000 0.060000
				CHANNELS 3 Zrotation Yrotation Xrotation
				JOINT Neck
				{
					OFFSET 0.000000 0.000000 0.000000
					CHANNELS 3 Zrotation Yrotation Xrotation
					JOINT Neck1
					{
						OFFSET 0.000000 1.600000 0.340000
						CHANNELS 3 Zrotation Yrotation Xrotation
						JOINT Head
						{
							OFFSET 0.000000 1.667000 -0.240000
							CHANNELS 3 Zrotation Yrotation Xrotation
							End Site
							{
								OFFSET 0.000000 0.000000 0.000000
							}
						}
					}
				}
				JOINT LeftShoulder
				{
					OFFSET 0.000000 0.000000 0.000000
					CHANNELS 3 Zrotation Yrotation Xrotation
					JOINT LeftArm
					{
						OFFSET 2.700000 1.550000 -0.730000
						CHANNELS 3 Zrotation Yrotation Xrotation
						JOINT LeftForeArm
						{
							OFFSET 5.450000 0.000000 0.000000
							CHANNELS 3 Zrotation Yrotation Xrotation
							JOINT LeftHand
							{
								OFFSET 3.450000 0.000000 0.000000
								CHANNELS 3 Zrotation Yrotation Xrotation
								JOINT LeftHandIndex1
								{
									OFFSET 0.750000 0.000000 0.000000
									CHANNELS 3 Zrotation Yrotation Xrotation
									End Site
									{
										OFFSET 0.000000 0.000000 0.000000
									}
								}
							}
						}
					}
				}
				JOINT RightShoulder
				{
					OFFSET 0.000000 0.000000 0.000000
					CHANNELS 3 Zrotation Yrotation Xrotation
					JOINT RightArm
					{
						OFFSET -2.700000 1.550000 -0.730000
						CHANNELS 3 Zrotation Yrotation Xrotation
						JOINT RightForeArm
						{
							OFFSET -5.450000 0.000000 0.000000
							CHANNELS 3 Zrotation Yrotation Xrotation
							JOINT RightHand
							{
								OFFSET -3.450000 0.000000 0.000000
								CHANNELS 3 Zrotation Yrotation Xrotation
								JOINT RightHandIndex1
								{
									OFFSET -0.750000 0.000000 0.000000
									CHANNELS 3 Zrotation Yrotation Xrotation
									End Site
									{
										OFFSET 0.000000 0.000000 0.000000
									}
								}
							}
						}
					}
				}
			}
		}
	}
}
MOTION
Frames: 13
Frame Time: 0.016667
-0.622180 18.381270 -7.263660 -4.346181 1.620472 -6.656050 -15.053607 14.009364 2.946198 -0.313392 -0.757296 -0.477281 -4.280762 6.961033 24.814387 -0.314989 6.592681 2.665041 -0.306630 -0.632530 -0.521270 18.388300 -10.435545 3.029016 1.598937 2.619335 -34.267318 -9.239103 -5.751427 49.605906 -1.053689 -7.018197 1.724383 -0.351590 1.184650 0.875930 -3.933395 -3.568798 -7.739662 16.102922 -10.559109 21.902612 -8.352741 -7.658270 11.759494 2.821205 -2.429492 -13.100169 -10.462976 2.593334 42.281437 -4.471100 -0.741410 -8.295380 -13.982434 -20.556551 7.864931 -39.290599 -23.001146 -6.472153 78.349223 -65.403537 -58.831028 -4.155379 1.098520 0.884060 0.512520 0.134310 0.381490 8.029201 17.941344 8.874735 55.777389 5.528715 -15.152844 -39.889987 26.900697 -10.909257 1.769544 -1.173571 -0.424280 0.566330 0.641930 0.192380 
-0.591550 18.276390 -7.247170 -2.458587 -0.184078 -8.320954 -15.164700 13.992658 3.214469 -2.672087 -0.883447 1.410981 -5.797544 7.718526 26.427004 -0.220166 7.054513 2.496603 -0.264830 -0.586970 -0.477160 18.291794 -10.215894 2.978778 -0.014336 2.460474 -32.964517 -2.529960 -8.599068 47.625683 -1.043461 -6.824848 1.776636 -0.323440 1.134640 0.836670 -3.614004 -4.006872 -7.897924 12.500655 -10.123909 25.763852 -6.674047 -7.615317 12.672981 2.012902 -3.318936 -13.510277 -12.833413 3.576519 42.772964 -3.105010 -0.945810 -12.335190 -11.485695 -20.595785 7.963853 -35.402527 -23.234519 -6.614593 87.943514 -57.943414 -62.939779 -4.272605 1.420975 0.974080 0.437090 0.182790 0.369590 7.442008 18.711727 9.099883 52.658661 5.113118 -16.702459 -44.742822 29.369795 -13.377356 1.713268 -1.106110 -0.449930 0.626010 0.637240 0.164840 
-0.546090 18.141630 -7.215840 -1.424505 -2.055943 -9.305132 -15.177063 13.684194 3.357122 -5.164659 -0.974001 2.997433 -7.120600 8.347078 27.705803 -0.092935 7.409285 2.384191 -0.253630 -0.542140 -0.500090 18.339595 -9.964509 3.118322 -0.603292 2.998798 -32.922102 4.205375 -11.423499 46.420174 -1.119796 -7.079504 1.699434 -0.298270 1.138130 0.806060 -3.652572 -3.906906 -8.007094 11.876661 -10.260253 28.339230 -7.024684 -7.724535 13.424898 1.317040 -4.428410 -13.604664 -15.178708 4.237442 41.993722 -1.731660 -1.523930 -14.206630 -8.515872 -20.091828 7.817372 -31.691020 -22.654852 -7.380798 92.230734 -52.315402 -62.894258 -4.294978 1.674005 0.981200 0.410030 0.193860 0.382330 5.980113 18.788847 9.053391 50.891099 5.206942 -17.555317 -49.569316 30.437737 -15.577634 1.694650 -1.098425 -0.454000 0.671080 0.634320 0.185710 
-0.507560 17.971780 -7.181910 -0.236151 -3.448550 -9.947547 -15.199061 13.341512 3.504587 -8.320364 -1.370772 3.485354 -7.384500 8.638924 30.084181 0.052454 7.668018 2.303914 -0.221430 -0.455430 -0.537070 18.377171 -9.708715 3.293310 -1.487646 3.433210 -33.184362 10.682017 -14.255722 45.696000 -1.273330 -7.640106 1.557630 -0.261880 1.135420 0.764190 -3.678942 -3.784722 -8.166628 10.584415 -10.208154 30.722331 -6.987876 -7.870747 13.550966 0.540776 -4.970418 -13.669932 -16.214853 4.668949 41.604398 0.106550 -1.886960 -14.827050 -5.750889 -19.231893 7.686417 -27.811283 -20.966263 -8.297588 95.342024 -46.486359 -60.707567 -4.244636 1.911120 0.962930 0.390440 0.200170 0.427390 4.866339 18.325647 8.895989 48.975557 4.931394 -18.158492 -54.529980 31.338963 -17.958864 1.689980 -1.129769 -0.441630 0.686870 0.586850 0.222540 
-0.463930 17.757550 -7.140700 1.149898 -4.690436 -10.537523 -15.244838 13.010233 3.677642 -11.234657 -2.143949 3.436754 -7.935414 9.103641 33.000580 0.194900 8.074625 2.157230 -0.192450 -0.416640 -0.507210 18.384486 -9.456944 3.443834 -2.507926 3.719562 -33.032758 16.905530 -16.731525 44.199018 -1.447674 -8.117919 1.420061 -0.254850 1.096250 0.773400 -3.635246 -3.699553 -8.350211 8.899372 -9.782200 33.323775 -6.753132 -7.776685 13.412997 0.113227 -5.038271 -13.390350 -15.985460 4.388194 41.124584 -0.030800 -1.816790 -17.307960 -2.828529 -17.879891 7.222864 -23.204141 -18.964106 -9.147286 96.121372 -41.313501 -56.132102 -4.213729 2.076059 0.977740 0.364640 0.237710 0.425870 2.856666 17.326255 8.468214 47.987951 5.430696 -18.358529 -59.765537 29.729452 -19.278724 1.723673 -1.178477 -0.416730 0.683610 0.568130 0.218500 
-0.419880 17.527740 -7.093760 2.416066 -5.641141 -11.095939 -15.307171 12.717165 3.870820 -13.815282 -3.113360 3.122798 -8.766613 9.856138 36.251083 0.240310 8.760307 1.948484 -0.324670 -0.617060 -0.530480 18.368990 -9.212476 3.584374 -3.240301 4.202072 -33.152568 21.392581 -18.390749 43.158916 -1.534890 -8.487920 1.299984 -0.326380 1.163740 0.760330 -3.536731 -3.650159 -8.563846 7.142354 -8.952677 35.864466 -6.177229 -7.337069 12.250269 -0.028567 -4.625636 -13.125412 -14.413151 3.526588 40.334321 -1.539180 -1.751750 -18.703340 -1.460167 -17.085274 6.508468 -16.149306 -14.900642 -10.109470 95.041839 -37.599820 -50.092854 -4.305476 2.057519 1.056570 0.390370 0.191570 0.351070 1.800085 16.814269 8.438589 45.579846 5.005155 -18.492924 -63.409270 26.832581 -18.978207 1.725671 -1.138371 -0.531800 0.765270 0.696360 0.159450 
-0.377500 17.304990 -7.057430 3.449782 -7.204514 -12.346899 -15.420906 12.549013 4.039886 -15.231549 -4.133844 2.917104 -10.907700 11.356884 39.227831 0.423154 9.504267 1.697954 -0.338010 -0.642740 -0.497100 18.296022 -8.929223 3.686618 -3.721298 4.870295 -32.808534 24.764499 -19.750566 43.150893 -1.686702 -8.905544 1.169210 -0.346610 1.136860 0.785660 -3.277658 -3.835056 -8.770729 4.481295 -7.392635 39.538858 -4.567112 -6.552428 11.358170 0.015055 -3.670736 -12.871321 -11.908890 2.958649 40.289936 -3.144190 -0.862760 -20.608860 -0.462639 -16.634969 5.954828 -9.560608 -10.164509 -11.156354 93.032729 -35.673585 -45.039569 -4.329509 2.116670 1.093540 0.382750 0.223750 0.320540 0.722933 16.589790 8.335273 41.911574 4.967401 -18.389432 -65.104524 22.113186 -16.920427 1.792867 -1.200569 -0.534250 0.758110 0.713640 0.132730 
-0.335620 17.061220 -7.011870 4.877515 -8.651465 -13.365668 -15.577900 12.417078 4.216544 -16.961992 -5.231868 2.236283 -12.896268 13.020064 42.503671 0.587350 10.290748 1.428039 -0.320510 -0.642610 -0.436140 18.198551 -8.531788 3.794384 -4.701549 5.708431 -33.535659 26.765024 -21.177874 44.990275 -1.889503 -9.486429 0.979507 -0.351670 1.081100 0.812220 -2.930126 -4.266646 -8.983479 1.342332 -5.329330 42.908306 -2.676547 -5.688920 9.583812 0.216918 -2.819671 -12.110865 -9.813436 2.678028 40.052959 -4.694960 0.114510 -25.227720 -0.951763 -15.311066 4.679693 -1.762860 -6.067107 -11.067360 88.889457 -35.392570 -39.362206 -4.313433 2.116446 1.183930 0.340840 0.285970 0.292000 0.800754 15.615698 7.913762 36.899523 4.443991 -18.038404 -66.847703 18.239520 -14.681851 1.834362 -1.216102 -0.546350 0.761570 0.721310 0.088910 
-0.284500 16.825880 -6.934350 5.045175 -9.060507 -13.691844 -15.669596 12.306105 4.318462 -17.218640 -6.609793 1.330733 -15.193702 14.992366 45.696963 0.786037 11.122996 1.154841 -0.335460 -0.674950 -0.397910 18.148202 -8.220327 3.903566 -5.341780 6.332575 -34.333263 28.658461 -22.846610 46.631766 -2.076586 -10.026694 0.827225 -0.385000 1.027470 0.815250 -2.744802 -4.578355 -9.169567 0.945169 -4.396941 44.873704 -1.812855 -5.002302 7.760895 0.701316 -1.903058 -11.634938 -8.310795 2.366433 41.520475 -5.890500 0.691460 -28.568290 -2.557010 -14.968277 3.490699 6.984387 -3.535545 -10.133229 83.471546 -36.708386 -34.310328 -4.298936 2.044209 1.261310 0.295910 0.336410 0.256500 1.406622 14.997677 7.989890 31.928254 1.626534 -18.133537 -68.322611 14.768170 -12.157049 1.894150 -1.202766 -0.558690 0.765270 0.735080 0.051140 
-0.245490 16.613700 -6.840370 5.758510 -9.118468 -13.628501 -15.760295 12.186795 4.433530 -17.926848 -7.792166 0.254613 -17.128825 16.733437 48.177390 1.005212 11.788718 0.952510 -0.356740 -0.726720 -0.377790 18.101626 -7.899088 4.021094 -6.646987 6.726380 -35.788446 30.010686 -24.511431 48.649879 -2.237738 -10.607031 0.664499 -0.440890 0.984380 0.822210 -2.568074 -4.912138 -9.363737 0.211719 -3.393821 45.396216 -0.958106 -4.401345 6.237282 1.025316 -1.468106 -11.799070 -8.082952 2.787003 43.704052 -6.497300 1.400260 -28.714260 -3.656045 -15.076772 3.021075 12.543806 -1.864429 -9.062897 77.955961 -38.168536 -30.266936 -4.284574 2.032337 1.297030 0.261700 0.360950 0.234220 1.889049 15.056671 8.489436 28.309974 -2.334942 -18.518980 -69.916337 13.534215 -11.040455 1.955599 -1.212121 -0.547630 0.724740 0.735800 0.031020 
-0.219690 16.449680 -6.740970 6.252795 -9.759845 -13.726609 -15.839362 12.126630 4.464517 -17.555737 -8.319213 -0.391615 -19.628112 18.730134 49.282552 1.205860 12.358645 0.768057 -0.385370 -0.801750 -0.350250 18.053956 -7.616871 4.178407 -7.417503 7.648073 -37.178915 30.668291 -25.880865 51.086940 -2.380442 -11.159742 0.496608 -0.513110 0.929380 0.839540 -2.398629 -5.178154 -9.539172 -0.355735 -2.151535 45.198577 -0.079139 -3.412360 5.304740 1.407382 -0.762611 -12.556439 -7.598477 2.989502 47.672203 -7.039120 1.956260 -26.491860 -4.392675 -16.001530 3.195437 16.003203 -0.190682 -8.023726 72.442169 -39.633970 -26.888157 -4.276929 2.063148 1.319430 0.229440 0.377960 0.190860 1.927713 15.926909 9.386188 25.582940 -6.150553 -18.862798 -70.571751 12.898796 -10.314755 2.022796 -1.219526 -0.520290 0.651260 0.749180 0.005420 
-0.203650 16.350260 -6.639680 5.917164 -10.917430 -14.085370 -15.895907 12.211741 4.397816 -15.854086 -7.981094 -0.177226 -21.924632 20.426043 49.018020 1.400368 12.643700 0.678988 -0.363670 -0.762920 -0.336730 18.002137 -7.454566 4.276821 -6.791561 8.886259 -37.102937 30.905638 -26.641366 52.836503 -2.499139 -11.521810 0.419757 -0.536850 0.863620 0.854880 -2.242782 -5.428666 -9.623998 -0.335636 -1.450990 45.014869 0.743278 -2.613782 4.907935 1.967462 -0.138228 -13.449286 -6.815946 3.042377 51.288509 -8.733340 2.785640 -23.111300 -5.350720 -17.142784 3.916105 16.636483 2.588928 -7.463581 71.301004 -41.136412 -26.430650 -4.253407 2.125330 1.273670 0.216350 0.410510 0.195650 1.825797 17.239650 10.055534 22.848572 -7.358538 -18.872513 -71.202306 11.987167 -9.989851 2.089398 -1.275332 -0.440900 0.567500 0.702310 0.023290 
-0.180180 16.338990 -6.518350 4.867452 -11.145890 -15.105532 -15.875116 12.355057 4.294843 -13.968624 -7.048092 1.795746 -22.398870 20.969367 48.452819 1.462447 12.678535 0.653759 -0.317470 -0.685140 -0.334450 17.996397 -7.535882 4.251007 -5.991389 9.339026 -35.069504 31.206896 -27.052089 53.156413 -2.578651 -11.652759 0.393907 -0.519750 0.817960 0.891270 -2.253118 -5.440449 -9.577921 1.438362 -1.834133 45.839641 0.191000 -2.182694 5.213900 2.442430 0.556858 -13.644250 -5.463981 2.531585 52.991677 -9.676560 3.045110 -22.380100 -6.247590 -17.878062 4.214646 16.248439 3.606597 -7.533919 71.990380 -43.397345 -28.119396 -4.217206 2.155398 1.249560 0.211090 0.451640 0.216440 1.693190 17.646158 10.130364 23.257509 -7.786818 -19.676916 -73.621736 12.325924 -11.117598 2.093669 -1.335059 -0.374710 0.510800 0.665270 0.044270 
